<svg width="398" height="165" viewBox="0 0 398 165" fill="none" xmlns="http://www.w3.org/2000/svg">
<path d="M28.8247 -8.35163C47.5574 -7.28384 65.9065 -5.3707 84.4031 -2.03241C101.286 1.01468 120.926 3.70319 134.966 14.5693C145.256 22.5333 152.394 33.6098 154.733 46.5083C156.53 56.4133 155.84 66.7908 158.284 76.6136C160.346 84.9033 165.054 94.9794 169.966 102.023C178.305 113.983 193.559 122.888 207.207 127.304C221.674 131.986 237.672 131.94 252.607 134.095C270.066 136.614 285.879 140.812 299.478 152.583C307.917 159.888 312.205 170.377 319.374 178.907C327.737 188.858 340.672 196.149 351.773 202.51C369.492 212.663 388.17 219.558 407.953 224.584C420.497 227.77 433.67 229.509 446.609 229.747C454.468 229.891 461.453 229.023 468.525 225.623C475.188 222.42 482.33 219.211 485.249 212.104" stroke="white" stroke-opacity="0.2" stroke-width="1" stroke-linecap="round"/>
<path d="M55.3325 -17.1348C74.0652 -16.067 92.4144 -14.1539 110.911 -10.8156C127.794 -7.76852 147.434 -5.08002 161.474 5.78606C171.764 13.7501 178.902 24.8266 181.241 37.7251C183.038 47.6301 182.348 58.0076 184.792 67.8304C186.854 76.1201 191.562 86.1962 196.474 93.24C204.812 105.2 220.067 114.105 233.715 118.521C248.182 123.202 264.18 123.157 279.115 125.312C296.574 127.831 312.387 132.029 325.986 143.8C334.425 151.105 338.713 161.593 345.882 170.124C354.244 180.074 367.18 187.366 378.281 193.727C396 203.88 414.677 210.775 434.461 215.801C447.004 218.987 460.178 220.725 473.116 220.964C480.976 221.108 487.961 220.24 495.033 216.84C501.696 213.637 508.837 210.428 511.756 203.321" stroke="white" stroke-opacity="0.2" stroke-width="1" stroke-linecap="round"/>
<path d="M81.5317 -28.5157C100.264 -27.4479 118.614 -25.5348 137.11 -22.1965C153.993 -19.1494 173.633 -16.4609 187.673 -5.5948C197.963 2.36926 205.101 13.4457 207.44 26.3443C209.237 36.2492 208.547 46.6267 210.991 56.4495C213.053 64.7393 217.761 74.8154 222.673 81.8591C231.012 93.8187 246.266 102.724 259.914 107.14C274.381 111.822 290.379 111.776 305.314 113.931C322.773 116.45 338.586 120.648 352.185 132.419C360.624 139.724 364.913 150.213 372.081 158.743C380.444 168.693 393.379 175.985 404.48 182.346C422.199 192.499 440.877 199.394 460.66 204.42C473.204 207.606 486.378 209.345 499.316 209.583C507.175 209.727 514.16 208.859 521.232 205.459C527.895 202.256 535.037 199.047 537.956 191.94" stroke="white" stroke-opacity="0.2" stroke-width="1" stroke-linecap="round"/>
<path d="M100.375 -41.1622C119.108 -40.0944 137.457 -38.1812 155.954 -34.843C172.837 -31.7959 192.477 -29.1074 206.517 -18.2413C216.807 -10.2772 223.945 0.799254 226.284 13.6978C228.081 23.6028 227.391 33.9802 229.835 43.8031C231.897 52.0928 236.605 62.1689 241.517 69.2127C249.855 81.1723 265.109 90.0774 278.758 94.4938C293.225 99.1751 309.223 99.1298 324.158 101.284C341.617 103.803 357.43 108.001 371.029 119.773C379.468 127.077 383.756 137.566 390.925 146.096C399.287 156.047 412.223 163.339 423.324 169.7C441.043 179.853 459.72 186.747 479.504 191.773C492.047 194.96 505.221 196.698 518.159 196.936C526.019 197.081 533.004 196.212 540.076 192.813C546.739 189.61 553.88 186.401 556.799 179.294" stroke="white" stroke-opacity="0.2" stroke-width="1" stroke-linecap="round"/>
<path d="M114.825 -50.2872C133.557 -49.2194 151.907 -47.3062 170.403 -43.968C187.286 -40.9209 206.926 -38.2324 220.966 -27.3663C231.256 -19.4022 238.394 -8.32575 240.733 4.57277C242.53 14.4778 241.84 24.8552 244.284 34.6781C246.346 42.9678 251.054 53.0439 255.966 60.0877C264.305 72.0473 279.559 80.9524 293.207 85.3688C307.674 90.0501 323.672 90.0048 338.607 92.1595C356.066 94.6784 371.879 98.8765 385.478 110.648C393.917 117.952 398.205 128.441 405.374 136.971C413.737 146.922 426.672 154.214 437.773 160.575C455.492 170.728 474.17 177.622 493.953 182.648C506.497 185.835 519.67 187.573 532.609 187.811C540.468 187.956 547.453 187.087 554.525 183.688C561.188 180.485 568.33 177.276 571.249 170.169" stroke="white" stroke-opacity="0.2" stroke-width="1" stroke-linecap="round"/>
<path d="M141.336 -59.0762C160.069 -58.0084 178.418 -56.0953 196.915 -52.757C213.798 -49.7099 233.438 -47.0214 247.478 -36.1553C257.768 -28.1913 264.905 -17.1148 267.245 -4.21629C269.042 5.68869 268.352 16.0662 270.796 25.889C272.858 34.1787 277.566 44.2548 282.477 51.2986C290.816 63.2582 306.07 72.1633 319.719 76.5797C334.186 81.2611 350.184 81.2157 365.119 83.3704C382.578 85.8893 398.391 90.0874 411.99 101.859C420.429 109.163 424.717 119.652 431.886 128.182C440.248 138.133 453.183 145.425 464.285 151.786C482.004 161.939 500.681 168.833 520.465 173.859C533.008 177.046 546.182 178.784 559.12 179.022C566.98 179.167 573.965 178.298 581.037 174.899C587.7 171.696 594.841 168.487 597.76 161.38" stroke="white" stroke-opacity="0.2" stroke-width="1" stroke-linecap="round"/>
<path d="M167.532 -70.4493C186.264 -69.3815 204.614 -67.4684 223.11 -64.1301C239.993 -61.083 259.633 -58.3945 273.673 -47.5284C283.963 -39.5643 291.101 -28.4879 293.44 -15.5893C295.237 -5.68436 294.547 4.69313 296.991 14.5159C299.053 22.8057 303.761 32.8818 308.673 39.9255C317.012 51.8851 332.266 60.7902 345.914 65.2067C360.381 69.888 376.379 69.8427 391.314 71.9974C408.773 74.5163 424.586 78.7144 438.185 90.4857C446.624 97.7903 450.913 108.279 458.081 116.809C466.444 126.76 479.379 134.052 490.48 140.412C508.199 150.566 526.877 157.46 546.66 162.486C559.204 165.673 572.378 167.411 585.316 167.649C593.175 167.794 600.16 166.925 607.232 163.526C613.895 160.322 621.037 157.113 623.956 150.007" stroke="white" stroke-opacity="0.2" stroke-width="1" stroke-linecap="round"/>
<path d="M186.377 -83.1016C205.11 -82.0338 223.459 -80.1207 241.956 -76.7824C258.839 -73.7353 278.479 -71.0468 292.519 -60.1807C302.809 -52.2167 309.946 -41.1402 312.286 -28.2417C314.083 -18.3367 313.393 -7.95921 315.837 1.8636C317.899 10.1533 322.607 20.2294 327.518 27.2732C335.857 39.2328 351.111 48.1379 364.76 52.5543C379.227 57.2357 395.225 57.1903 410.16 59.345C427.619 61.864 443.432 66.062 457.031 77.8333C465.47 85.138 469.758 95.6267 476.927 104.157C485.289 114.108 498.224 121.399 509.326 127.76C527.045 137.913 545.722 144.808 565.506 149.834C578.049 153.02 591.223 154.759 604.161 154.997C612.021 155.141 619.006 154.273 626.078 150.873C632.741 147.67 639.882 144.461 642.801 137.354" stroke="white" stroke-opacity="0.2" stroke-width="1" stroke-linecap="round"/>
</svg>
