<svg width="14" height="15" viewBox="0 0 14 15" fill="none" xmlns="http://www.w3.org/2000/svg">
    <path d="M10.5625 0.67V1.75C10.5625 2.0575 10.3075 2.3125 10 2.3125C9.6925 2.3125 9.4375 2.0575 9.4375 1.75V0.625H4.5625V1.75C4.5625 2.0575 4.3075 2.3125 4 2.3125C3.6925 2.3125 3.4375 2.0575 3.4375 1.75V0.67C1.225 0.8725 0.25 2.2975 0.25 4.375V10.75C0.25 13 1.375 14.5 4 14.5H10C12.625 14.5 13.75 13 13.75 10.75V4.375C13.75 2.2975 12.775 0.8725 10.5625 0.67ZM7 10.5625H4C3.6925 10.5625 3.4375 10.3075 3.4375 10C3.4375 9.6925 3.6925 9.4375 4 9.4375H7C7.3075 9.4375 7.5625 9.6925 7.5625 10C7.5625 10.3075 7.3075 10.5625 7 10.5625ZM10 6.8125H4C3.6925 6.8125 3.4375 6.5575 3.4375 6.25C3.4375 5.9425 3.6925 5.6875 4 5.6875H10C10.3075 5.6875 10.5625 5.9425 10.5625 6.25C10.5625 6.5575 10.3075 6.8125 10 6.8125Z" fill="#989898" fill-opacity="1"/>
</svg>
