<svg width="18" height="17" viewBox="0 0 18 17" fill="none" xmlns="http://www.w3.org/2000/svg">
<path d="M17.4139 12.0001L11.8966 2.06898C11.1552 0.732764 10.1293 0 9 0C7.87068 0 6.84481 0.732764 6.10343 2.06898L0.586142 12.0001C-0.11214 13.2673 -0.189726 14.4829 0.370623 15.4398C0.930972 16.3967 2.03443 16.9225 3.48272 16.9225H14.5173C15.9656 16.9225 17.069 16.3967 17.6294 15.4398C18.1897 14.4829 18.1121 13.2587 17.4139 12.0001ZM8.35344 6.03453C8.35344 5.68108 8.64655 5.38797 9 5.38797C9.35345 5.38797 9.64656 5.68108 9.64656 6.03453V10.3449C9.64656 10.6984 9.35345 10.9915 9 10.9915C8.64655 10.9915 8.35344 10.6984 8.35344 10.3449V6.03453ZM9.61207 13.5432C9.56897 13.5777 9.52587 13.6122 9.48276 13.6467C9.43104 13.6811 9.37931 13.707 9.32759 13.7242C9.27586 13.7501 9.22414 13.7673 9.16379 13.776C9.11207 13.7846 9.05172 13.7932 9 13.7932C8.94827 13.7932 8.88793 13.7846 8.82758 13.776C8.77586 13.7673 8.72414 13.7501 8.67241 13.7242C8.62069 13.707 8.56896 13.6811 8.51724 13.6467C8.47413 13.6122 8.43103 13.5777 8.38793 13.5432C8.23275 13.3794 8.13792 13.1553 8.13792 12.9311C8.13792 12.707 8.23275 12.4829 8.38793 12.3191C8.43103 12.2846 8.47413 12.2501 8.51724 12.2156C8.56896 12.1811 8.62069 12.1553 8.67241 12.138C8.72414 12.1122 8.77586 12.0949 8.82758 12.0863C8.93965 12.0604 9.06034 12.0604 9.16379 12.0863C9.22414 12.0949 9.27586 12.1122 9.32759 12.138C9.37931 12.1553 9.43104 12.1811 9.48276 12.2156C9.52587 12.2501 9.56897 12.2846 9.61207 12.3191C9.76725 12.4829 9.86207 12.707 9.86207 12.9311C9.86207 13.1553 9.76725 13.3794 9.61207 13.5432Z" fill="#334155"/>
</svg>
