<svg width="20" height="20" viewBox="0 0 20 20" fill="none" xmlns="http://www.w3.org/2000/svg">
<path d="M17.7084 7.625C15.7834 4.6 12.9667 2.85834 10.0001 2.85834C8.51675 2.85834 7.07508 3.29167 5.75841 4.1C4.44175 4.91667 3.25841 6.10834 2.29175 7.625C1.45841 8.93334 1.45841 11.0583 2.29175 12.3667C4.21675 15.4 7.03342 17.1333 10.0001 17.1333C11.4834 17.1333 12.9251 16.7 14.2417 15.8917C15.5584 15.075 16.7417 13.8833 17.7084 12.3667C18.5417 11.0667 18.5417 8.93334 17.7084 7.625ZM10.0001 13.3667C8.13342 13.3667 6.63341 11.8583 6.63341 10C6.63341 8.14167 8.13342 6.63334 10.0001 6.63334C11.8667 6.63334 13.3667 8.14167 13.3667 10C13.3667 11.8583 11.8667 13.3667 10.0001 13.3667Z" fill="#334155"/>
<path d="M10 7.61667C8.69167 7.61667 7.625 8.68334 7.625 10C7.625 11.3083 8.69167 12.375 10 12.375C11.3083 12.375 12.3833 11.3083 12.3833 10C12.3833 8.69167 11.3083 7.61667 10 7.61667Z" fill="#334155"/>
</svg>
