<?xml version="1.0" encoding="utf-8"?>
<svg xmlns="http://www.w3.org/2000/svg" viewBox="0 0 32 32" width="24" height="24">
  <path d="M16 4C9.382813 4 4 9.382813 4 16C4 22.617188 9.382813 28 16 28C20.050781 28 23.640625 25.988281 25.8125 22.90625L24.1875 21.75C22.378906 24.320313 19.390625 26 16 26C10.464844 26 6 21.535156 6 16C6 10.464844 10.464844 6 16 6C19.390625 6 22.375 7.679688 24.1875 10.25L25.8125 9.09375C23.640625 6.011719 20.050781 4 16 4 Z M 23.34375 11.28125L21.90625 12.71875L24.1875 15L12 15L12 17L24.1875 17L21.90625 19.28125L23.34375 20.71875L27.34375 16.71875L28.03125 16L27.34375 15.28125Z" fill="#FFFFFF" />
</svg>
