<svg width="24" height="25" viewBox="0 0 24 25" fill="none" xmlns="http://www.w3.org/2000/svg">
<path d="M21.0697 5.73C19.4597 5.57 17.8497 5.45 16.2297 5.36V5.35L16.0097 4.05C15.8597 3.13 15.6397 1.75 13.2997 1.75H10.6797C8.34967 1.75 8.12967 3.07 7.96967 4.04L7.75967 5.32C6.82967 5.38 5.89967 5.44 4.96967 5.53L2.92967 5.73C2.50967 5.77 2.20967 6.14 2.24967 6.55C2.28967 6.96 2.64967 7.26 3.06967 7.22L5.10967 7.02C10.3497 6.5 15.6297 6.7 20.9297 7.23C20.9597 7.23 20.9797 7.23 21.0097 7.23C21.3897 7.23 21.7197 6.94 21.7597 6.55C21.7897 6.14 21.4897 5.77 21.0697 5.73Z" fill="#F74B4A"/>
<path d="M19.2317 8.64C18.9917 8.39 18.6617 8.25 18.3217 8.25H5.6817C5.3417 8.25 5.0017 8.39 4.7717 8.64C4.5417 8.89 4.4117 9.23 4.4317 9.58L5.0517 19.84C5.1617 21.36 5.3017 23.26 8.7917 23.26H15.2117C18.7017 23.26 18.8417 21.37 18.9517 19.84L19.5717 9.59C19.5917 9.23 19.4617 8.89 19.2317 8.64ZM13.6617 18.25H10.3317C9.9217 18.25 9.5817 17.91 9.5817 17.5C9.5817 17.09 9.9217 16.75 10.3317 16.75H13.6617C14.0717 16.75 14.4117 17.09 14.4117 17.5C14.4117 17.91 14.0717 18.25 13.6617 18.25ZM14.5017 14.25H9.5017C9.0917 14.25 8.7517 13.91 8.7517 13.5C8.7517 13.09 9.0917 12.75 9.5017 12.75H14.5017C14.9117 12.75 15.2517 13.09 15.2517 13.5C15.2517 13.91 14.9117 14.25 14.5017 14.25Z" fill="#F74B4A"/>
</svg>
