<svg width="20" height="20" viewBox="0 0 20 20" fill="none" xmlns="http://www.w3.org/2000/svg">
<path d="M17.725 7.65001C17.4834 7.26668 17.225 6.90834 16.9584 6.57501C16.65 6.18334 16.0667 6.15001 15.7167 6.50001L13.2167 9.00001C13.4 9.55001 13.4334 10.1833 13.2667 10.8417C12.975 12.0167 12.025 12.9667 10.85 13.2583C10.1917 13.425 9.55837 13.3917 9.00837 13.2083C9.00837 13.2083 7.81671 14.4 6.95837 15.2583C6.54171 15.675 6.67504 16.4083 7.23337 16.625C8.12504 16.9667 9.05004 17.1417 10 17.1417C11.4834 17.1417 12.925 16.7083 14.2417 15.9C15.5834 15.0667 16.7917 13.8417 17.7667 12.2833C18.5584 11.025 18.5167 8.90834 17.725 7.65001Z" fill="#334155"/>
<path d="M11.6834 8.31667L8.3167 11.6833C7.8917 11.25 7.6167 10.65 7.6167 10C7.6167 8.69167 8.68337 7.61667 10 7.61667C10.65 7.61667 11.25 7.89167 11.6834 8.31667Z" fill="#334155"/>
<path d="M15.2084 4.79167L12.3834 7.61667C11.7751 7 10.9334 6.63334 10.0001 6.63334C8.13342 6.63334 6.63341 8.14167 6.63341 10C6.63341 10.9333 7.00842 11.775 7.61675 12.3833L4.80008 15.2083H4.79175C3.86675 14.4583 3.01675 13.5 2.29175 12.3667C1.45841 11.0583 1.45841 8.93334 2.29175 7.625C3.25841 6.10834 4.44175 4.91667 5.75841 4.1C7.07508 3.3 8.51675 2.85834 10.0001 2.85834C11.8584 2.85834 13.6584 3.54167 15.2084 4.79167Z" fill="#334155"/>
<path d="M12.3834 10C12.3834 11.3083 11.3167 12.3833 10.0001 12.3833C9.95007 12.3833 9.9084 12.3833 9.8584 12.3667L12.3667 9.85834C12.3834 9.90834 12.3834 9.95 12.3834 10Z" fill="#334155"/>
<path d="M18.1417 1.85834C17.8917 1.60834 17.4834 1.60834 17.2334 1.85834L1.8584 17.2417C1.6084 17.4917 1.6084 17.9 1.8584 18.15C1.9834 18.2667 2.14173 18.3333 2.3084 18.3333C2.47507 18.3333 2.6334 18.2667 2.7584 18.1417L18.1417 2.75834C18.4001 2.50834 18.4001 2.10834 18.1417 1.85834Z" fill="#334155"/>
</svg>
