<svg width="26" height="27" viewBox="0 0 26 27" fill="none" xmlns="http://www.w3.org/2000/svg">
    <rect opacity="0.2" x="7" y="7.8125" width="19" height="19" rx="5" fill="#295DE1"/>
    <path d="M12.1605 11.0595C12.0605 11.0495 11.9405 11.0495 11.8305 11.0595C9.45055 10.9795 7.56055 9.02945 7.56055 6.62945C7.56055 4.17945 9.54055 2.18945 12.0005 2.18945C14.4505 2.18945 16.4405 4.17945 16.4405 6.62945C16.4305 9.02945 14.5405 10.9795 12.1605 11.0595Z" stroke="#295DE1" stroke-width="1.5" stroke-linecap="round" stroke-linejoin="round"/>
    <path d="M7.1607 14.7495C4.7407 16.3695 4.7407 19.0095 7.1607 20.6195C9.9107 22.4595 14.4207 22.4595 17.1707 20.6195C19.5907 18.9995 19.5907 16.3595 17.1707 14.7495C14.4307 12.9195 9.9207 12.9195 7.1607 14.7495Z" stroke="#00171F" stroke-width="1.5" stroke-linecap="round" stroke-linejoin="round"/>
</svg>
