<svg width="18" height="18" viewBox="0 0 18 18" fill="none" xmlns="http://www.w3.org/2000/svg">
<path d="M16.1699 8.05501L15.1499 6.87001C14.9549 6.64501 14.7974 6.22501 14.7974 5.92501V4.65001C14.7974 3.85501 14.1449 3.20251 13.3499 3.20251H12.0749C11.7824 3.20251 11.3549 3.04501 11.1299 2.85001L9.94491 1.83001C9.42741 1.38751 8.57991 1.38751 8.05491 1.83001L6.87741 2.85751C6.65241 3.04501 6.22491 3.20251 5.93241 3.20251H4.63491C3.83991 3.20251 3.18741 3.85501 3.18741 4.65001V5.93251C3.18741 6.22501 3.02991 6.64501 2.84241 6.87001L1.82991 8.06251C1.39491 8.58001 1.39491 9.42001 1.82991 9.93751L2.84241 11.13C3.02991 11.355 3.18741 11.775 3.18741 12.0675V13.35C3.18741 14.145 3.83991 14.7975 4.63491 14.7975H5.93241C6.22491 14.7975 6.65241 14.955 6.87741 15.15L8.06241 16.17C8.57991 16.6125 9.42741 16.6125 9.95241 16.17L11.1374 15.15C11.3624 14.955 11.7824 14.7975 12.0824 14.7975H13.3574C14.1524 14.7975 14.8049 14.145 14.8049 13.35V12.075C14.8049 11.7825 14.9624 11.355 15.1574 11.13L16.1774 9.94501C16.6124 9.42751 16.6124 8.57251 16.1699 8.05501ZM12.1199 7.58251L8.49741 11.205C8.39241 11.31 8.24991 11.37 8.09991 11.37C7.94991 11.37 7.80741 11.31 7.70241 11.205L5.88741 9.39001C5.66991 9.17251 5.66991 8.81251 5.88741 8.59501C6.10491 8.37751 6.46491 8.37751 6.68241 8.59501L8.09991 10.0125L11.3249 6.78751C11.5424 6.57001 11.9024 6.57001 12.1199 6.78751C12.3374 7.00501 12.3374 7.36501 12.1199 7.58251Z" fill="#334155"/>
</svg>
