<svg width="20" height="20" viewBox="0 0 20 20" fill="none" xmlns="http://www.w3.org/2000/svg">
    <path d="M16.2586 4.8763L11.3086 2.01797C10.5003 1.5513 9.50026 1.5513 8.68359 2.01797L3.74193 4.8763C2.93359 5.34297 2.43359 6.20964 2.43359 7.1513V12.8513C2.43359 13.7846 2.93359 14.6513 3.74193 15.1263L8.69193 17.9846C9.50026 18.4513 10.5003 18.4513 11.3169 17.9846L16.2669 15.1263C17.0753 14.6596 17.5753 13.793 17.5753 12.8513V7.1513C17.5669 6.20964 17.0669 5.3513 16.2586 4.8763ZM9.37526 6.45964C9.37526 6.11797 9.65859 5.83464 10.0003 5.83464C10.3419 5.83464 10.6253 6.11797 10.6253 6.45964V10.8346C10.6253 11.1763 10.3419 11.4596 10.0003 11.4596C9.65859 11.4596 9.37526 11.1763 9.37526 10.8346V6.45964ZM10.7669 13.8596C10.7253 13.9596 10.6669 14.0513 10.5919 14.1346C10.4336 14.293 10.2253 14.3763 10.0003 14.3763C9.89193 14.3763 9.78359 14.3513 9.68359 14.3096C9.57526 14.268 9.49193 14.2096 9.40859 14.1346C9.33359 14.0513 9.27526 13.9596 9.22526 13.8596C9.18359 13.7596 9.16693 13.6513 9.16693 13.543C9.16693 13.3263 9.25026 13.1096 9.40859 12.9513C9.49193 12.8763 9.57526 12.818 9.68359 12.7763C9.99193 12.643 10.3586 12.718 10.5919 12.9513C10.6669 13.0346 10.7253 13.118 10.7669 13.2263C10.8086 13.3263 10.8336 13.4346 10.8336 13.543C10.8336 13.6513 10.8086 13.7596 10.7669 13.8596Z" fill="#295DE1"/>
</svg>
