<svg width="214" height="134" viewBox="0 0 214 134" fill="none" xmlns="http://www.w3.org/2000/svg">
<path d="M110.182 111.864C137.642 111.864 159.903 90.8291 159.903 64.8813C159.903 38.9334 137.642 17.8984 110.182 17.8984C82.7219 17.8984 60.4609 38.9334 60.4609 64.8813C60.4609 90.8291 82.7219 111.864 110.182 111.864Z" fill="#F4F5FC"/>
<path d="M26.9577 83.088C31.5698 85.6311 38.1868 83.2803 38.1868 83.2803C38.1868 83.2803 37.3216 76.8073 32.7066 74.2672C28.0945 71.7241 21.4805 74.072 21.4805 74.072C21.4805 74.072 22.3456 80.5451 26.9577 83.088Z" fill="#F4F5FC"/>
<path d="M169.052 46.2361C166.636 46.2361 164.677 48.0725 164.677 50.3378C164.677 52.6031 166.636 54.4395 169.052 54.4395C171.469 54.4395 173.428 52.6031 173.428 50.3378C173.428 48.0725 171.469 46.2361 169.052 46.2361Z" fill="#295DE1"/>
<path d="M80.3491 46.9835C78.5916 46.9835 77.1669 48.486 77.1669 50.3394C77.1669 52.1928 78.5916 53.6953 80.3491 53.6953C82.1066 53.6953 83.5312 52.1928 83.5312 50.3394C83.5312 48.486 82.1066 46.9835 80.3491 46.9835Z" fill="#295DE1"/>
<path d="M157.516 115.592C156.198 115.592 155.129 114.59 155.129 113.354C155.129 112.119 156.198 111.117 157.516 111.117C158.834 111.117 159.902 112.119 159.902 113.354C159.902 114.59 158.834 115.592 157.516 115.592Z" fill="#00171F"/>
<path d="M163.085 32.0679C161.328 32.0679 159.903 30.8993 159.903 29.4578C159.903 28.0163 161.328 26.8477 163.085 26.8477C164.843 26.8477 166.268 28.0163 166.268 29.4578C166.268 30.8993 164.843 32.0679 163.085 32.0679Z" fill="#00171F"/>
<path d="M40.3239 48.4508C40.6978 49.7588 39.8697 51.1034 38.4743 51.4539C37.0789 51.8044 35.6446 51.0281 35.2707 49.72C34.8968 48.412 35.7249 47.0674 37.1203 46.7169C38.5157 46.3664 39.95 47.1427 40.3239 48.4508Z" fill="#00171F"/>
<path d="M87.1115 26.8466C85.1343 26.8466 83.5316 25.3441 83.5316 23.4907C83.5316 21.6373 85.1343 20.1348 87.1115 20.1348C89.0886 20.1348 90.6914 21.6373 90.6914 23.4907C90.6914 25.3441 89.0886 26.8466 87.1115 26.8466Z" fill="#00171F"/>
<path d="M181.383 89.4902C180.065 89.4902 178.996 88.4886 178.996 87.2529C178.996 86.0173 180.065 85.0156 181.383 85.0156C182.701 85.0156 183.77 86.0173 183.77 87.2529C183.77 88.4886 182.701 89.4902 181.383 89.4902Z" fill="#00171F"/>
<path d="M49.585 32.0684H49.6238C49.8533 35.0704 52.2723 35.1165 52.2723 35.1165C52.2723 35.1165 49.6048 35.1646 49.6048 38.6331C49.6048 35.1646 46.9375 35.1165 46.9375 35.1165C46.9375 35.1165 49.3555 35.0704 49.585 32.0684ZM65.8371 107.557H65.8743C66.0946 110.55 68.4171 110.596 68.4171 110.596C68.4171 110.596 65.8562 110.644 65.8562 114.102C65.8562 110.644 63.2953 110.596 63.2953 110.596C63.2953 110.596 65.6166 110.55 65.8371 107.557Z" fill="#00171F"/>
<path fill-rule="evenodd" clip-rule="evenodd" d="M74.7357 47.796C59.5042 49.6939 47.7324 61.4867 47.7324 75.907C47.7324 91.644 61.7149 104.406 78.9573 104.406H147.652C161.447 104.406 172.632 94.1974 172.632 81.6067C172.632 69.0161 161.447 58.8079 147.652 58.8079C147.652 39.919 130.878 24.6094 110.182 24.6094C93.7142 24.6094 79.763 34.316 74.7357 47.796Z" fill="#295DE1"/>
<path fill-rule="evenodd" clip-rule="evenodd" d="M32.2998 103.984H33.3984C33.664 103.984 33.8779 104.18 33.8779 104.419V105.417C33.8778 105.533 33.8272 105.643 33.7373 105.725C33.6474 105.806 33.5255 105.852 33.3984 105.853H32.2998C32.1728 105.852 32.0511 105.806 31.9613 105.724C31.8715 105.643 31.8208 105.532 31.8203 105.417V104.419C31.8201 104.362 31.8324 104.305 31.8564 104.252C31.8805 104.199 31.9158 104.151 31.9603 104.111C32.0049 104.07 32.0578 104.038 32.1161 104.017C32.1744 103.995 32.2368 103.984 32.2998 103.984ZM36.1085 103.984H37.2071C37.4705 103.984 37.6868 104.18 37.6868 104.419V105.417C37.6867 105.533 37.636 105.643 37.5461 105.725C37.4562 105.806 37.3343 105.852 37.2071 105.853H36.1085C35.9815 105.852 35.8598 105.806 35.77 105.724C35.6802 105.643 35.6295 105.532 35.629 105.417V104.419C35.629 104.18 35.8451 103.984 36.1085 103.984ZM39.9203 103.984H41.0189C41.2823 103.984 41.4984 104.18 41.4984 104.419V105.417C41.4982 105.533 41.4477 105.643 41.3578 105.725C41.2679 105.806 41.146 105.852 41.0189 105.853H39.9203C39.7933 105.852 39.6716 105.806 39.5818 105.724C39.492 105.643 39.4413 105.532 39.4408 105.417V104.419C39.4406 104.362 39.4529 104.305 39.4769 104.252C39.5009 104.199 39.5362 104.151 39.5808 104.111C39.6254 104.07 39.6783 104.038 39.7366 104.017C39.7948 103.995 39.8573 103.984 39.9203 103.984ZM43.7292 103.984H44.8278C45.0912 103.984 45.3073 104.18 45.3073 104.419V105.417C45.3072 105.533 45.2566 105.643 45.1667 105.725C45.0768 105.806 44.9549 105.852 44.8278 105.853H43.7292C43.6018 105.852 43.4797 105.807 43.3894 105.725C43.2991 105.643 43.248 105.533 43.2473 105.417V104.419C43.2488 104.304 43.3001 104.193 43.3902 104.112C43.4803 104.031 43.6021 103.984 43.7292 103.984ZM47.5386 103.984H48.6372C48.903 103.984 49.1191 104.18 49.1191 104.419V105.417C49.119 105.474 49.1064 105.531 49.0821 105.584C49.0578 105.637 49.0223 105.685 48.9775 105.725C48.9328 105.766 48.8797 105.798 48.8213 105.82C48.7629 105.842 48.7004 105.853 48.6372 105.853H47.5386C47.4116 105.852 47.2899 105.806 47.2001 105.724C47.1103 105.643 47.0596 105.532 47.0591 105.417V104.419C47.0591 104.18 47.2752 103.984 47.5386 103.984ZM36.2484 107.756H37.347C37.6104 107.756 37.8265 107.952 37.8265 108.191V109.191C37.826 109.306 37.7753 109.417 37.6855 109.498C37.5957 109.58 37.474 109.626 37.347 109.627H36.2484C36.1212 109.626 35.9994 109.58 35.9095 109.499C35.8196 109.417 35.769 109.307 35.7689 109.191V108.193C35.7685 108.136 35.7806 108.079 35.8046 108.026C35.8285 107.973 35.8638 107.925 35.9084 107.884C35.9529 107.843 36.0059 107.811 36.0643 107.789C36.1226 107.767 36.1852 107.756 36.2484 107.756ZM40.0575 107.756H41.1562C41.4196 107.756 41.6356 107.952 41.6356 108.191V109.191C41.6351 109.306 41.5845 109.417 41.4946 109.498C41.4048 109.58 41.2832 109.626 41.1562 109.627H40.0575C39.9305 109.626 39.8088 109.58 39.719 109.499C39.6291 109.417 39.5784 109.306 39.5778 109.191V108.193C39.5775 108.136 39.5896 108.079 39.6136 108.026C39.6376 107.973 39.6729 107.925 39.7174 107.884C39.762 107.843 39.815 107.811 39.8734 107.789C39.9318 107.767 39.9944 107.756 40.0575 107.756ZM43.8667 107.756H44.9653C45.2311 107.756 45.4472 107.952 45.4472 108.191V109.191C45.4465 109.307 45.3955 109.418 45.3052 109.499C45.2149 109.581 45.0927 109.627 44.9653 109.627H43.8667C43.7397 109.626 43.618 109.58 43.5282 109.498C43.4384 109.417 43.3877 109.306 43.3872 109.191V108.193C43.3872 107.952 43.6033 107.756 43.8667 107.756ZM39.9203 99.9316H41.0189C41.2823 99.9316 41.4984 100.128 41.4984 100.367V101.365C41.4983 101.48 41.4478 101.591 41.3579 101.673C41.268 101.754 41.1461 101.8 41.0189 101.8H39.9203C39.7932 101.8 39.6715 101.754 39.5817 101.672C39.4919 101.591 39.4412 101.48 39.4408 101.365V100.367C39.4406 100.31 39.4529 100.253 39.4769 100.2C39.5009 100.147 39.5362 100.099 39.5808 100.059C39.6254 100.018 39.6783 99.9863 39.7366 99.9644C39.7948 99.9426 39.8573 99.9315 39.9203 99.9316ZM43.7292 99.9316H44.8278C45.0912 99.9316 45.3073 100.128 45.3073 100.367V101.365C45.3072 101.48 45.2567 101.591 45.1668 101.673C45.0769 101.754 44.955 101.8 44.8278 101.8H43.7292C43.6018 101.8 43.4796 101.754 43.3893 101.673C43.299 101.591 43.248 101.48 43.2473 101.365V100.367C43.2488 100.252 43.3001 100.141 43.3902 100.06C43.4803 99.9784 43.6021 99.9324 43.7292 99.9316ZM171.722 103.984H172.821C173.086 103.984 173.3 104.18 173.3 104.419V105.417C173.3 105.533 173.25 105.643 173.16 105.725C173.07 105.806 172.948 105.852 172.821 105.853H171.722C171.595 105.852 171.474 105.806 171.384 105.724C171.294 105.643 171.243 105.532 171.243 105.417V104.419C171.243 104.362 171.255 104.305 171.279 104.252C171.303 104.199 171.338 104.151 171.383 104.111C171.427 104.07 171.48 104.038 171.539 104.017C171.597 103.995 171.659 103.984 171.722 103.984ZM175.531 103.984H176.63C176.893 103.984 177.109 104.18 177.109 104.419V105.417C177.109 105.533 177.058 105.643 176.969 105.725C176.879 105.806 176.757 105.852 176.63 105.853H175.531C175.404 105.852 175.282 105.806 175.192 105.724C175.103 105.643 175.052 105.532 175.051 105.417V104.419C175.051 104.18 175.268 103.984 175.531 103.984ZM179.343 103.984H180.441C180.705 103.984 180.921 104.18 180.921 104.419V105.417C180.921 105.533 180.87 105.643 180.78 105.725C180.69 105.806 180.568 105.852 180.441 105.853H179.343C179.216 105.852 179.094 105.806 179.004 105.724C178.914 105.643 178.864 105.532 178.863 105.417V104.419C178.863 104.362 178.875 104.305 178.899 104.252C178.923 104.199 178.959 104.151 179.003 104.111C179.048 104.07 179.101 104.038 179.159 104.017C179.217 103.995 179.28 103.984 179.343 103.984ZM183.152 103.984H184.25C184.514 103.984 184.73 104.18 184.73 104.419V105.417C184.73 105.533 184.679 105.643 184.589 105.725C184.499 105.806 184.377 105.852 184.25 105.853H183.152C183.024 105.852 182.902 105.807 182.812 105.725C182.722 105.643 182.67 105.533 182.67 105.417V104.419C182.671 104.304 182.723 104.193 182.813 104.112C182.903 104.031 183.024 103.984 183.152 103.984ZM186.961 103.984H188.06C188.325 103.984 188.542 104.18 188.542 104.419V105.417C188.541 105.474 188.529 105.531 188.505 105.584C188.48 105.637 188.445 105.685 188.4 105.725C188.355 105.766 188.302 105.798 188.244 105.82C188.185 105.842 188.123 105.853 188.06 105.853H186.961C186.834 105.852 186.712 105.806 186.623 105.724C186.533 105.643 186.482 105.532 186.482 105.417V104.419C186.482 104.18 186.698 103.984 186.961 103.984ZM175.671 107.756H176.769C177.033 107.756 177.249 107.952 177.249 108.191V109.191C177.248 109.306 177.198 109.417 177.108 109.498C177.018 109.58 176.896 109.626 176.769 109.627H175.671C175.544 109.626 175.422 109.58 175.332 109.499C175.242 109.417 175.191 109.307 175.191 109.191V108.193C175.191 108.136 175.203 108.079 175.227 108.026C175.251 107.973 175.286 107.925 175.331 107.884C175.375 107.843 175.428 107.811 175.487 107.789C175.545 107.767 175.608 107.756 175.671 107.756ZM179.48 107.756H180.579C180.842 107.756 181.058 107.952 181.058 108.191V109.191C181.058 109.306 181.007 109.417 180.917 109.498C180.827 109.58 180.706 109.626 180.579 109.627H179.48C179.353 109.626 179.231 109.58 179.141 109.499C179.052 109.417 179.001 109.306 179 109.191V108.193C179 108.136 179.012 108.079 179.036 108.026C179.06 107.973 179.095 107.925 179.14 107.884C179.184 107.843 179.237 107.811 179.296 107.789C179.354 107.767 179.417 107.756 179.48 107.756ZM183.289 107.756H184.388C184.654 107.756 184.87 107.952 184.87 108.191V109.191C184.869 109.307 184.818 109.418 184.728 109.499C184.637 109.581 184.515 109.627 184.388 109.627H183.289C183.162 109.626 183.04 109.58 182.951 109.498C182.861 109.417 182.81 109.306 182.81 109.191V108.193C182.81 107.952 183.026 107.756 183.289 107.756ZM179.343 99.9316H180.441C180.705 99.9316 180.921 100.128 180.921 100.367V101.365C180.921 101.48 180.87 101.591 180.78 101.673C180.69 101.754 180.568 101.8 180.441 101.8H179.343C179.216 101.8 179.094 101.754 179.004 101.672C178.914 101.591 178.864 101.48 178.863 101.365V100.367C178.863 100.31 178.875 100.253 178.899 100.2C178.923 100.147 178.959 100.099 179.003 100.059C179.048 100.018 179.101 99.9863 179.159 99.9644C179.217 99.9426 179.28 99.9315 179.343 99.9316ZM183.152 99.9316H184.25C184.514 99.9316 184.73 100.128 184.73 100.367V101.365C184.73 101.48 184.679 101.591 184.589 101.673C184.499 101.754 184.377 101.8 184.25 101.8H183.152C183.024 101.8 182.902 101.754 182.812 101.673C182.721 101.591 182.67 101.48 182.67 101.365V100.367C182.671 100.252 182.723 100.141 182.813 100.06C182.903 99.9784 183.024 99.9324 183.152 99.9316Z" fill="#00171F"/>
<path d="M121.387 64.4402L109.5 53.2969L97.6133 64.4402" stroke="#F4F5FC" stroke-width="6" stroke-miterlimit="10" stroke-linecap="round" stroke-linejoin="round"/>
<path d="M109.5 84.5058V53.6094" stroke="#F4F5FC" stroke-width="6" stroke-miterlimit="10" stroke-linecap="round" stroke-linejoin="round"/>
</svg>
