<svg width="53" height="53" viewBox="0 0 53 53" fill="none" xmlns="http://www.w3.org/2000/svg">
<path fill-rule="evenodd" clip-rule="evenodd" d="M13.25 4.62698V48.373C13.25 50.9284 15.2892 53 17.8047 53H48.4453C50.9608 53 53 50.9284 53 48.373V12.1755C53 10.9396 52.5132 9.75497 51.6482 8.88583L44.1355 1.33728C43.2828 0.480528 42.1319 0 40.9326 0H17.8047C15.2892 0 13.25 2.07157 13.25 4.62698ZM16.1484 48.373V4.62698C16.1484 3.69774 16.89 2.94444 17.8047 2.94444H40.3711V13.0397C40.3711 14.782 41.7615 16.1944 43.4766 16.1944H50.1016V48.373C50.1016 49.3023 49.36 50.0556 48.4453 50.0556H17.8047C16.89 50.0556 16.1484 49.3023 16.1484 48.373ZM50.1016 13.25V12.1755C50.1016 11.7261 49.9246 11.2953 49.61 10.9793L43.2695 4.60859V13.0397C43.2695 13.1558 43.3622 13.25 43.4766 13.25H50.1016Z" fill="#9D9C9B"/>
<path fill-rule="evenodd" clip-rule="evenodd" d="M33.9531 21.7383C33.9531 20.9379 34.602 20.2891 35.4023 20.2891H44.9258C45.7262 20.2891 46.375 20.9379 46.375 21.7383C46.375 22.5387 45.7262 23.1875 44.9258 23.1875H35.4023C34.602 23.1875 33.9531 22.5387 33.9531 21.7383Z" fill="#69C997"/>
<path fill-rule="evenodd" clip-rule="evenodd" d="M33.9531 28.3633C33.9531 27.5629 34.602 26.9141 35.4023 26.9141H44.9258C45.7262 26.9141 46.375 27.5629 46.375 28.3633C46.375 29.1637 45.7262 29.8125 44.9258 29.8125H35.4023C34.602 29.8125 33.9531 29.1637 33.9531 28.3633Z" fill="#54AD7D"/>
<path fill-rule="evenodd" clip-rule="evenodd" d="M33.9531 34.9883C33.9531 34.1879 34.602 33.5391 35.4023 33.5391H44.9258C45.7262 33.5391 46.375 34.1879 46.375 34.9883C46.375 35.7887 45.7262 36.4375 44.9258 36.4375H35.4023C34.602 36.4375 33.9531 35.7887 33.9531 34.9883Z" fill="#2B593D"/>
<path d="M0 15.3203C0 13.9482 1.11229 12.8359 2.48438 12.8359H27.3281C28.7002 12.8359 29.8125 13.9482 29.8125 15.3203V40.1641C29.8125 41.5361 28.7002 42.6484 27.3281 42.6484H2.48437C1.11229 42.6484 0 41.5361 0 40.1641V15.3203Z" fill="#3D8A58"/>
<path d="M8.28125 36.059L12.9346 27.3977L8.71149 19.4609H11.9269L14.6555 24.7936L17.3275 19.4609H20.509L16.2859 27.5222L20.9393 36.059H17.6219L14.5989 30.3188L11.576 36.059H8.28125Z" fill="white"/>
</svg>
