<svg width="112" height="112" viewBox="0 0 112 112" fill="none" xmlns="http://www.w3.org/2000/svg">
<path d="M12.04 88.7133L11.9466 88.8067C10.6866 86.0533 9.89332 82.9267 9.56665 79.4733C9.89332 82.88 10.78 85.96 12.04 88.7133Z" fill="#79899E" fill-opacity="0.6"/>
<path d="M42 48.44C48.134 48.44 53.1066 43.4674 53.1066 37.3334C53.1066 31.1993 48.134 26.2267 42 26.2267C35.8659 26.2267 30.8933 31.1993 30.8933 37.3334C30.8933 43.4674 35.8659 48.44 42 48.44Z" fill="#79899E" fill-opacity="0.6"/>
<path d="M75.5533 9.33334H36.4466C19.4599 9.33334 9.33325 19.46 9.33325 36.4467V75.5534C9.33325 80.64 10.2199 85.0733 11.9466 88.8067C15.9599 97.6734 24.5466 102.667 36.4466 102.667H75.5533C92.5399 102.667 102.667 92.54 102.667 75.5534V64.8667V36.4467C102.667 19.46 92.5399 9.33334 75.5533 9.33334ZM95.0599 58.3333C91.4199 55.2067 85.5399 55.2067 81.8999 58.3333L62.4866 74.9933C58.8466 78.12 52.9666 78.12 49.3266 74.9933L47.7399 73.6867C44.4266 70.7933 39.1533 70.5133 35.4199 73.0333L17.9666 84.7467C16.9399 82.1333 16.3333 79.1 16.3333 75.5534V36.4467C16.3333 23.2867 23.2866 16.3333 36.4466 16.3333H75.5533C88.7133 16.3333 95.6666 23.2867 95.6666 36.4467V58.8467L95.0599 58.3333Z" fill="#79899E" fill-opacity="0.6"/>
</svg>
